<svg id="Layer_1" data-name="Layer 1" xmlns="http://www.w3.org/2000/svg" viewBox="0 0 280.7 40.22"><defs><style>.cls-1{fill:#121720;}.cls-2{fill:#d61e39;}</style></defs><title>j-red</title><rect class="cls-1" x="105.9" y="5.93" width="8.55" height="33.74"/><path class="cls-2" d="M436.36,351.72a5.62,5.62,0,0,0-7.92,8,5.55,5.55,0,0,0,7.92,0,5.69,5.69,0,0,0,0-8" transform="translate(-157.29 -350.08)"/><path class="cls-1" d="M182.32,383.49a3.64,3.64,0,0,0-6.21,2.6,3.57,3.57,0,0,0,1.06,2.58,3.62,3.62,0,0,0,5.15,0,3.7,3.7,0,0,0,0-5.18" transform="translate(-157.29 -350.08)"/><polygon class="cls-1" points="227.44 26.78 236.4 26.78 236.4 18.41 227.43 18.41 227.43 13.81 237.62 13.81 237.62 5.94 218.95 5.94 218.95 39.68 237.61 39.68 237.61 31.56 227.44 31.56 227.44 26.78"/><polygon class="cls-1" points="38.73 26.78 47.7 26.78 47.7 18.41 38.73 18.41 38.73 13.81 48.91 13.81 48.91 5.94 30.25 5.94 30.25 39.68 48.91 39.68 48.91 31.56 38.73 31.56 38.73 26.78"/><path class="cls-1" d="M231.75,365.22a18.79,18.79,0,0,0-3.58-1.23,19.63,19.63,0,0,0-4.3-.46c-.39,0-.83,0-1.32,0a5.28,5.28,0,0,0-1.38.27,2.77,2.77,0,0,0-1.09.65,1.73,1.73,0,0,0-.44,1.26,2.1,2.1,0,0,0,1.26,1.89,12.19,12.19,0,0,0,2.5.89q1.51.39,3.26.89a10.57,10.57,0,0,1,3.25,1.6,8.31,8.31,0,0,1,2.5,3,10.35,10.35,0,0,1,1,4.93,11.92,11.92,0,0,1-1.16,5.58,9.5,9.5,0,0,1-3,3.46,11.43,11.43,0,0,1-4,1.77,19.7,19.7,0,0,1-4.36.5,35.11,35.11,0,0,1-5.33-.38,39.6,39.6,0,0,1-5.26-1.21V380a16.79,16.79,0,0,0,4.3,1.67,19.3,19.3,0,0,0,4.53.56,15,15,0,0,0,1.94-.12,5.31,5.31,0,0,0,1.45-.35,2.74,2.74,0,0,0,1-.71,2.27,2.27,0,0,0,.58-1.23,2,2,0,0,0-.73-1.57,5.37,5.37,0,0,0-1.63-.79c-.63-.23-1.61-.44-2.42-.63a22.65,22.65,0,0,1-2.48-.75,16.94,16.94,0,0,1-2.48-1.13,7.36,7.36,0,0,1-2.15-1.84,7.87,7.87,0,0,1-1.53-2.58,12.78,12.78,0,0,1-.59-4.16,11.25,11.25,0,0,1,1.23-5.63,9,9,0,0,1,3.16-3.31,12.35,12.35,0,0,1,4.27-1.57,26.18,26.18,0,0,1,4.54-.41,30.05,30.05,0,0,1,4.28.31,38,38,0,0,1,4.21.85Z" transform="translate(-157.29 -350.08)"/><polygon class="cls-1" points="77.41 5.92 77.41 14.17 85.91 14.17 85.91 39.67 94.45 39.67 94.45 14.17 94.48 14.17 102.98 14.17 102.98 5.92 77.41 5.92"/><path class="cls-1" d="M159.39,381.64a8.72,8.72,0,0,0,2-.18c2.84-.33,3.2-4.11,3.2-6.31V356h9.23v19.81c0,8.69-4.14,14.48-12.47,14.48a10.13,10.13,0,0,1-4.09-.84v-8.08a5.29,5.29,0,0,0,2.11.26" transform="translate(-157.29 -350.08)"/><path class="cls-1" d="M294.35,372.24V356h8.49v33.76h-8.46l-8.4-14-.13-.21v14.21h-8.69V356h8.7Z" transform="translate(-157.29 -350.08)"/><path class="cls-1" d="M364.86,389.75h9.25l-8.92-11.07h.08a10.42,10.42,0,0,0,7.75-7.17,18.5,18.5,0,0,0,.34-3.69c0-8.19-5.26-11.81-12.2-11.81H348v33.74h8.32V379.43ZM356.34,372v-8.59s8.53-.76,8.87,3.8a5.61,5.61,0,0,1,0,1.08c-.44,4.47-8.87,3.72-8.87,3.72" transform="translate(-157.29 -350.08)"/><path class="cls-1" d="M414.2,356.41a39.43,39.43,0,0,0-5.69-.39h-6.22c-1,0-2,0-3,0v33.6h0v.14h12.32l1.14-.09c8.32-.84,14.12-7.28,14.15-17.1,0-7.17-4.22-14.81-12.73-16.14m-5.62,16.29h0m0-7.75c9.44-.36,9.26,7.74,9.26,7.75s.18,8.11-9.26,7.75Z" transform="translate(-157.29 -350.08)"/><path class="cls-1" d="M326.61,356h-10.4l-11.8,33.75h9.26l2.11-5.25h11.06l2,5.25h9.36ZM318,376.42l3.39-10.07,3.32,10.07Z" transform="translate(-157.29 -350.08)"/></svg>